<?xml version="1.0" standalone="no"?>
<!DOCTYPE svg PUBLIC "-//W3C//DTD SVG 20010904//EN"
 "http://www.w3.org/TR/2001/REC-SVG-20010904/DTD/svg10.dtd">
<svg version="1.0" xmlns="http://www.w3.org/2000/svg"
 width="1098.000000pt" height="1280.000000pt" viewBox="0 0 1098.000000 1280.000000"
 preserveAspectRatio="xMidYMid meet">
<g transform="translate(0.000000,1280.000000) scale(0.100000,-0.100000)"
fill="#000000" stroke="none">
<path d="M3515 12584 c-330 -73 -622 -376 -755 -782 -96 -295 -127 -615 -96
-1012 21 -273 103 -1192 211 -2385 125 -1377 122 -1335 106 -1335 -4 0 -46 46
-92 103 -502 614 -1034 1045 -1425 1154 -91 26 -112 28 -269 27 -155 -1 -178
-3 -260 -28 -491 -148 -802 -615 -709 -1064 24 -117 68 -200 251 -475 498
-745 957 -1631 1553 -2997 235 -539 294 -653 461 -900 167 -247 370 -472 634
-703 107 -94 144 -132 155 -162 26 -69 21 -519 -9 -786 -23 -208 -23 -217 -6
-253 51 -106 375 -254 735 -334 446 -99 1065 -158 1595 -150 275 3 298 9 377
92 68 71 118 169 234 456 154 384 230 523 308 565 31 17 34 17 69 0 47 -22 89
-70 127 -145 65 -130 101 -279 150 -628 16 -118 37 -240 46 -272 53 -188 238
-239 934 -260 448 -14 516 -5 555 71 8 15 31 115 51 221 109 596 257 1159 379
1448 67 160 146 285 312 493 106 133 107 136 405 478 495 569 594 707 664 923
133 410 332 1540 428 2431 47 431 60 844 31 1008 -41 237 -181 481 -364 633
-91 77 -243 157 -348 185 -101 28 -277 30 -376 6 -193 -48 -389 -185 -529
-368 -50 -65 -68 -81 -68 -60 0 35 -55 321 -85 436 -80 319 -258 552 -520 680
-137 68 -224 88 -385 88 -117 1 -148 -2 -234 -26 -239 -66 -505 -248 -651
-446 -33 -44 -63 -81 -67 -81 -4 0 -12 19 -18 43 -44 180 -128 364 -207 458
-363 423 -1057 466 -1443 89 -91 -89 -147 -169 -207 -298 -24 -52 -48 -91 -53
-86 -4 5 -27 209 -49 454 -140 1489 -272 2370 -410 2749 -40 109 -93 198 -192
321 -166 206 -370 351 -579 410 -101 29 -270 35 -365 14z"/>
</g>
</svg>
